<?xml version="1.0" standalone="no"?>
<!DOCTYPE svg PUBLIC "-//W3C//DTD SVG 20010904//EN"
 "http://www.w3.org/TR/2001/REC-SVG-20010904/DTD/svg10.dtd">
<svg version="1.0" xmlns="http://www.w3.org/2000/svg"
 width="267.000000pt" height="267.000000pt" viewBox="0 0 267.000000 267.000000"
 preserveAspectRatio="xMidYMid meet">
<metadata>
Created by potrace 1.14, written by Peter Selinger 2001-2017
</metadata>
<g transform="translate(0.000000,267.000000) scale(0.100000,-0.100000)"
fill="#000000" stroke="none">
<path d="M1240 2602 c0 -3 7 -10 17 -17 13 -9 13 -14 3 -20 -9 -5 -11 -4 -6 3
10 16 -6 15 -24 0 -12 -11 -12 -10 -2 4 9 11 10 18 2 23 -17 11 -132 -5 -159
-22 -13 -8 -20 -10 -17 -4 10 16 -46 3 -134 -31 -176 -69 -294 -167 -358 -297
-35 -73 -37 -81 -37 -176 1 -80 5 -109 22 -145 25 -54 120 -160 212 -236 82
-67 76 -62 113 -104 16 -19 24 -26 17 -15 -14 20 -13 20 9 1 23 -20 30 -32 12
-21 -18 11 -10 -4 27 -52 86 -113 149 -298 178 -523 16 -129 42 -550 44 -725
2 -114 17 -157 68 -191 61 -40 151 -39 208 4 l20 14 -20 -7 c-11 -5 -30 -9
-42 -9 -13 -1 -23 -4 -23 -8 0 -5 -17 -8 -39 -8 -81 0 -135 41 -75 56 l27 7
-29 13 c-16 7 -23 13 -15 13 11 1 10 5 -5 16 -23 17 -15 19 23 4 22 -8 24 -12
13 -19 -12 -8 -10 -10 8 -10 25 0 29 12 7 30 -9 7 -14 26 -12 46 2 30 4 32 21
20 21 -14 59 -65 39 -53 -13 8 -26 -8 -28 -34 -1 -13 10 -16 59 -16 51 -1 55
0 26 7 l-35 7 35 3 c19 1 27 4 18 7 -13 3 -15 9 -8 28 7 18 4 30 -12 50 -18
23 -27 26 -64 23 -48 -3 -52 3 -29 42 l15 25 -6 -27 c-5 -24 -3 -27 23 -26 30
1 32 5 34 71 1 15 6 27 13 27 6 0 4 5 -4 10 -11 7 -6 10 20 10 26 0 31 3 20
10 -8 5 -26 10 -40 11 l-25 1 25 8 c14 4 20 8 13 9 -6 1 -9 10 -6 21 3 12 -1
22 -9 25 -10 4 -13 15 -10 31 4 20 10 24 46 25 35 2 36 3 11 7 -27 4 -28 5
-10 13 17 8 16 9 -7 6 -15 -2 -25 0 -22 4 8 14 43 10 72 -8 l27 -17 -27 26
c-17 17 -26 34 -23 47 2 12 -1 21 -6 21 -11 0 -25 13 -49 45 -15 20 -14 20 8
1 19 -16 22 -17 22 -3 0 8 -6 18 -12 20 -7 3 -8 6 -2 6 5 1 9 15 8 31 -1 17 2
30 8 30 5 0 6 5 3 10 -5 8 -11 8 -20 0 -11 -9 -12 -7 -8 9 3 11 11 17 17 15 7
-3 13 2 13 10 0 9 -6 12 -16 8 -13 -5 -14 -3 -5 9 6 8 14 32 17 54 4 27 3 35
-3 25 -7 -11 -10 -12 -10 -2 0 15 39 75 52 80 5 2 13 13 20 25 11 21 10 21 -9
4 -11 -9 -28 -17 -39 -16 -18 0 -18 1 1 9 18 8 18 9 -5 10 l-25 2 25 8 25 8
-25 2 -25 2 25 8 25 7 -25 5 c-20 4 -19 5 6 4 19 -1 31 3 31 12 0 8 -10 11
-29 8 -16 -2 -26 0 -22 5 3 5 10 7 15 4 5 -4 9 -2 9 3 0 6 10 8 23 6 20 -4 21
-4 2 5 -25 12 -78 14 -71 2 3 -4 -3 -16 -14 -26 -16 -15 -22 -15 -35 -5 -8 7
-15 19 -15 27 0 8 -4 12 -8 9 -5 -3 -9 1 -9 9 0 8 4 12 9 9 4 -3 8 -1 8 5 0
18 42 24 52 7 6 -10 21 -16 41 -15 31 1 31 1 7 9 l-25 8 25 2 25 2 -25 9 c-23
8 -23 8 7 6 17 -2 32 -1 31 2 -2 22 5 31 25 32 17 1 18 2 4 6 -10 3 -25 -1
-34 -9 -11 -8 -14 -8 -10 -1 4 7 0 16 -10 22 -15 9 -14 11 12 12 l30 1 -30 8
-30 8 30 2 c17 1 39 5 50 10 15 7 11 8 -15 4 -19 -3 -46 -1 -60 5 -17 7 -20
10 -7 10 9 1 17 7 17 15 0 15 20 25 53 27 17 1 16 3 -8 10 -24 7 -20 8 20 5
48 -4 48 -4 15 6 -78 23 -87 28 -40 23 32 -3 38 -2 20 4 l-25 8 25 4 25 5 -27
5 c-17 4 -25 2 -21 -4 4 -6 -3 -8 -18 -4 -13 4 -27 7 -31 7 -4 0 -5 6 -2 14 4
10 14 12 42 5 58 -13 73 -9 19 6 -52 14 -64 14 -86 1 -11 -7 -13 -5 -6 10 4
10 8 29 8 41 -1 13 3 20 8 17 5 -3 9 -15 9 -27 0 -17 2 -19 9 -7 6 8 7 18 5
22 -3 4 0 8 5 8 6 0 11 -5 11 -11 0 -5 6 -7 13 -4 6 4 4 0 -6 -8 -21 -18 -16
-22 38 -30 30 -5 35 -4 20 3 -16 8 -11 9 20 6 22 -3 31 -2 21 1 -15 4 -16 7
-5 15 11 7 9 8 -6 4 -28 -7 -73 -14 -56 -9 12 4 12 6 0 14 -11 7 -11 9 -1 9 7
0 10 5 7 10 -4 6 -10 8 -15 5 -4 -3 -6 5 -3 17 5 23 5 23 -12 3 -16 -19 -16
-19 -1 7 10 16 12 28 5 30 -6 2 19 13 55 25 62 20 64 20 61 2 -5 -24 4 -24 22
-1 8 9 12 11 8 5 -3 -7 -1 -13 4 -13 6 0 11 5 11 10 0 6 7 10 16 10 13 0 15
-8 10 -42 -4 -30 -3 -38 4 -28 10 15 14 8 11 -22 -3 -26 23 -13 53 27 21 28
23 32 7 28 -18 -4 -19 -1 -23 52 -1 14 -8 25 -14 25 -10 0 -9 -12 2 -51 13
-45 14 -54 1 -66 -15 -15 -17 -9 -18 47 -1 14 -5 31 -11 38 -6 6 -7 12 -4 12
4 0 2 9 -4 20 -10 18 -8 19 22 15 l33 -5 -34 11 c-27 8 -31 13 -20 20 19 12
32 11 24 -1 -3 -5 -2 -10 3 -10 5 0 12 9 15 21 4 16 2 19 -11 14 -9 -4 -23
-10 -31 -13 -9 -3 -12 -1 -7 6 4 7 3 12 -3 12 -5 0 -13 -4 -16 -10 -3 -5 0
-10 7 -10 9 0 9 -3 -2 -10 -13 -9 -13 -10 0 -10 13 0 13 -1 0 -10 -13 -9 -13
-10 0 -10 13 0 13 -1 0 -10 -12 -8 -12 -10 -1 -10 8 0 11 -3 7 -7 -3 -4 -28
-8 -54 -8 -26 -1 -40 0 -32 3 10 3 2 10 -20 18 -23 8 -28 13 -15 13 17 1 18 3
5 12 -12 8 -10 9 7 4 13 -3 30 -2 39 3 14 8 11 11 -16 21 -40 13 -43 14 -36 2
3 -5 -1 -12 -9 -15 -12 -4 -13 -2 -5 13 5 11 15 22 22 24 7 3 2 6 -12 6 -15 1
-34 -10 -48 -26 -22 -26 -22 -25 1 7 14 19 32 33 39 31 23 -6 62 -5 83 3 13 5
12 2 -5 -9 -23 -15 -23 -16 -4 -12 19 4 21 1 14 -22 -4 -14 -5 -32 -3 -38 3
-7 -4 -13 -14 -14 -16 0 -16 -1 2 -9 30 -13 32 -12 32 18 1 52 3 59 28 70 31
14 46 15 25 2 -23 -15 4 -12 45 6 31 13 39 13 46 2 6 -9 9 -9 9 -1 0 6 9 15
21 18 16 5 18 10 8 21 -6 8 -16 14 -21 14 -6 0 -4 -7 3 -17 12 -14 12 -15 -1
-11 -8 3 -30 -1 -49 -8 -40 -17 -44 -17 -36 -4 8 13 4 13 -39 -5 -50 -21 -45
-8 7 16 39 18 29 21 -18 4 -11 -3 -7 1 8 10 29 17 63 13 52 -5 -3 -5 1 -10 9
-10 19 0 21 16 5 26 -8 5 -6 10 5 16 10 6 20 7 23 4 4 -3 1 -6 -5 -6 -6 0 -9
-7 -6 -15 4 -8 10 -15 16 -15 5 0 6 5 3 10 -3 6 -1 10 5 10 6 0 8 5 5 10 -8
13 8 13 22 -1 6 -6 13 -7 17 -1 3 5 -6 19 -19 32 -21 20 -27 21 -42 9 -16 -13
-17 -12 -5 3 9 11 10 18 2 23 -16 10 -29 -4 -25 -26 4 -20 3 -21 -14 -5 -18
16 -20 16 -30 -1 -6 -10 -11 -14 -11 -9 0 6 -7 1 -16 -10 -8 -10 -12 -13 -8
-5 5 11 2 13 -14 9 -12 -4 -20 -2 -17 2 3 5 -1 11 -7 14 -7 3 0 3 15 -1 18 -3
34 0 45 10 9 8 26 17 36 18 23 5 51 75 34 85 -6 4 -8 3 -5 -3 4 -6 -4 -15 -16
-20 -20 -9 -23 -8 -24 11 -1 11 1 15 4 9 3 -7 9 -13 14 -13 6 0 7 4 4 10 -3 5
10 20 30 31 27 16 34 26 29 41 -3 11 -6 40 -7 64 0 25 -4 47 -9 50 -5 3 -4 12
3 20 6 8 9 23 6 34 -3 11 -1 18 4 14 5 -3 9 -11 9 -19 0 -7 7 -15 15 -19 8 -3
15 -2 15 3 0 4 7 8 16 8 14 0 14 -2 -2 -14 -11 -8 -18 -22 -16 -31 3 -14 1
-13 -11 3 -9 11 -19 16 -24 11 -4 -5 -3 -11 3 -13 6 -2 9 -15 6 -30 -3 -17 -1
-24 6 -19 6 3 14 1 18 -5 4 -7 3 -9 -4 -5 -6 3 -13 2 -16 -3 -4 -5 2 -8 11 -6
10 2 23 4 30 4 6 1 15 11 19 24 3 12 13 30 22 39 12 15 13 20 1 35 -11 15 -11
16 1 6 17 -16 30 -17 30 -3 0 6 -10 15 -22 20 -13 5 -17 9 -10 9 24 2 51 41
61 87 0 4 7 1 14 -5 10 -8 14 -7 14 4 0 8 -3 13 -5 10 -7 -7 -32 15 -32 27 0
6 7 4 17 -3 15 -13 15 -12 4 9 -7 12 -16 20 -22 17 -5 -4 -9 1 -9 10 0 10 5
14 13 9 6 -4 2 3 -11 15 -12 12 -26 19 -31 16 -5 -3 -13 0 -17 6 -5 8 -3 9 6
4 8 -5 11 -3 8 6 -3 8 -11 13 -18 11 -11 -3 -11 0 0 13 11 13 10 15 -4 9 -13
-5 -17 -2 -14 12 2 12 -3 19 -13 19 -9 0 -23 8 -32 17 -9 9 -42 29 -72 43 -30
15 -55 29 -55 30 0 2 21 -3 47 -11 25 -8 48 -12 50 -10 8 8 -115 47 -166 53
-31 3 -58 8 -61 11 -5 5 86 -2 160 -13 21 -3 30 -1 21 4 -11 7 -11 10 0 17 7
4 14 3 17 -4 2 -6 9 -9 16 -6 18 7 111 -37 190 -90 37 -25 63 -39 56 -31 -28
34 -168 110 -256 141 -72 24 -120 34 -202 39 -59 4 -115 9 -126 11 -10 2 -28
-1 -38 -7 -11 -6 -18 -7 -15 -2 3 5 -16 9 -44 10 -27 0 -49 -2 -49 -5z m135
-23 c-4 -5 -12 -9 -18 -8 -9 0 -8 2 1 6 6 2 9 10 6 15 -4 7 -2 8 5 4 6 -4 9
-12 6 -17z m-70 -7 c-3 -3 -11 0 -18 7 -9 10 -8 11 6 5 10 -3 15 -9 12 -12z
m-185 -2 c0 -5 -8 -10 -17 -10 -15 0 -16 2 -3 10 19 12 20 12 20 0z m85 0 c-3
-5 -12 -10 -18 -10 -7 0 -6 4 3 10 19 12 23 12 15 0z m275 0 c0 -5 -8 -10 -17
-10 -15 0 -16 2 -3 10 19 12 20 12 20 0z m93 3 c-7 -2 -19 -2 -25 0 -7 3 -2 5
12 5 14 0 19 -2 13 -5z m47 -10 c0 5 5 5 12 1 14 -9 -21 -24 -40 -16 -10 3
-10 8 -1 19 10 11 14 11 20 1 5 -7 9 -9 9 -5z m60 -13 c0 -5 -4 -10 -10 -10
-5 0 -10 5 -10 10 0 6 5 10 10 10 6 0 10 -4 10 -10z m-247 -7 c-34 -2 -93 -2
-130 0 -37 2 -9 3 62 3 72 0 102 -1 68 -3z m-235 -10 c-10 -2 -26 -2 -35 0
-10 3 -2 5 17 5 19 0 27 -2 18 -5z m450 -73 c-14 -4 -32 -11 -40 -15 -7 -3 -4
1 6 9 11 9 29 16 40 15 17 -1 16 -2 -6 -9z m22 -76 c0 -14 -3 -14 -15 -4 -8 7
-15 14 -15 16 0 2 7 4 15 4 8 0 15 -7 15 -16z m79 -42 c14 -12 14 -12 -3 -4
-14 7 -27 5 -45 -6 l-26 -16 23 25 c12 14 23 32 23 40 1 8 4 5 6 -6 3 -11 13
-26 22 -33z m-729 27 c13 -9 13 -10 -1 -6 -9 3 -22 0 -28 -6 -7 -7 -11 -7 -11
-1 0 24 17 29 40 13z m61 -16 c-12 -20 -14 -14 -5 12 4 9 9 14 11 11 3 -2 0
-13 -6 -23z m569 17 c0 -5 -2 -10 -4 -10 -3 0 -8 5 -11 10 -3 6 -1 10 4 10 6
0 11 -4 11 -10z m-680 -25 c14 -19 14 -19 -2 -6 -10 7 -18 18 -18 24 0 6 1 8
3 6 1 -2 9 -13 17 -24z m641 -12 c13 -16 12 -17 -3 -4 -10 7 -18 15 -18 17 0
8 8 3 21 -13z m-616 -31 c-3 -3 -11 0 -18 7 -9 10 -8 11 6 5 10 -3 15 -9 12
-12z m-216 -46 c-3 -3 -11 5 -18 17 -13 21 -12 21 5 5 10 -10 16 -20 13 -22z
m-145 1 c-4 -10 3 -12 27 -9 25 4 36 0 50 -19 10 -13 19 -32 19 -42 0 -11 5
-15 11 -11 13 8 -21 -48 -36 -58 -22 -17 -55 -7 -80 25 -15 17 -22 23 -17 12
19 -38 48 -56 85 -53 20 1 34 6 31 10 -3 4 3 5 13 2 12 -4 14 -3 6 3 -7 5 -9
14 -5 20 5 8 12 2 19 -17 8 -21 8 -32 1 -37 -7 -3 -8 -1 -4 5 4 7 1 12 -8 12
-8 0 -17 -4 -21 -10 -3 -5 -13 -7 -23 -4 -15 5 -14 3 2 -10 11 -9 17 -23 13
-35 -3 -12 1 -22 9 -25 8 -3 14 -14 14 -24 0 -11 7 -26 17 -33 15 -13 15 -12
3 11 -11 23 -11 24 4 9 10 -9 14 -22 10 -33 -6 -16 -8 -16 -28 1 -18 15 -18
14 2 -8 17 -19 20 -28 11 -31 -9 -3 -8 -6 4 -11 9 -3 16 -3 15 1 -2 11 21 62
28 62 4 0 5 -3 1 -6 -10 -10 23 -65 34 -58 6 4 7 9 2 13 -12 9 -10 34 4 38 6
2 14 -1 18 -6 4 -7 0 -8 -11 -4 -15 6 -15 4 1 -20 19 -30 30 -36 21 -11 -5 14
-4 15 8 5 11 -9 16 -9 21 -1 4 7 16 10 26 7 12 -3 19 0 19 8 0 8 4 16 8 19 13
8 1 -57 -14 -79 -13 -18 -14 -18 -14 10 0 24 2 27 11 15 9 -13 10 -13 6 0 -2
8 -12 17 -22 19 -16 3 -17 -2 -12 -38 3 -22 2 -40 -1 -39 -25 3 -34 -4 -29
-22 3 -14 1 -18 -6 -13 -22 14 -36 11 -30 -5 6 -15 4 -15 -14 1 -11 9 -23 14
-26 10 -4 -3 2 -12 13 -20 11 -8 20 -22 19 -31 0 -13 -3 -12 -11 6 -6 12 -15
22 -20 22 -11 0 -10 -7 7 -40 9 -17 11 -30 6 -30 -6 0 -16 21 -24 46 -13 44
-13 45 -24 21 -10 -22 -8 -29 20 -61 37 -41 47 -44 47 -16 0 11 5 20 10 20 6
0 10 5 10 11 0 6 12 20 26 31 14 11 23 26 20 34 -3 7 -1 16 4 19 6 4 10 -1 10
-11 0 -13 3 -14 15 -4 8 7 12 16 9 21 -3 5 2 6 9 3 8 -3 14 -12 13 -21 -3 -20
-36 -44 -49 -36 -6 3 -7 1 -4 -4 4 -6 0 -16 -8 -23 -8 -7 -12 -17 -8 -23 3 -5
1 -7 -4 -4 -6 4 -21 -8 -33 -26 l-23 -33 -44 47 c-28 31 -51 46 -63 44 -12 -2
-17 2 -15 13 3 16 -54 76 -64 67 -2 -3 6 -17 19 -33 13 -15 -5 2 -39 36 -34
35 -60 67 -57 70 3 3 -2 14 -11 25 -18 20 -18 20 7 4 43 -30 51 -19 20 27 -17
24 -30 52 -30 61 0 11 -5 15 -15 11 -11 -4 -15 1 -15 17 0 31 44 143 75 189
25 38 39 49 29 25z m1096 -102 c0 -2 -10 -9 -22 -15 -22 -11 -22 -10 -4 4 21
17 26 19 26 11z m-111 -81 c-13 -14 -33 -30 -44 -36 -11 -6 -2 6 20 25 47 43
58 48 24 11z m67 -6 c-9 -5 -21 -6 -27 -2 -6 3 -31 -13 -56 -37 -25 -24 -42
-37 -37 -28 15 26 83 81 93 75 5 -4 12 -2 16 4 4 6 11 7 17 4 7 -4 5 -10 -6
-16z m9 -18 c14 23 25 7 25 -34 0 -51 -7 -60 -35 -40 -15 11 -16 17 -7 26 9 9
12 8 12 -4 0 -9 5 -20 10 -23 6 -4 10 11 10 36 l0 43 -20 -22 c-22 -23 -40
-29 -40 -13 0 5 8 12 18 14 16 4 16 5 0 6 -19 1 -58 -32 -58 -49 0 -5 9 -10
21 -10 11 0 17 5 14 10 -3 6 -1 10 5 10 23 0 3 -25 -23 -28 -35 -4 -35 17 -1
57 21 25 29 29 44 21 13 -7 21 -7 25 0z m-887 -35 c-3 -3 -9 2 -12 12 -6 14
-5 15 5 6 7 -7 10 -15 7 -18z m66 -23 c3 -5 -1 -9 -9 -9 -8 0 -12 4 -9 9 3 4
7 8 9 8 2 0 6 -4 9 -8z m186 -12 c0 -5 -10 -10 -22 -9 -22 0 -22 1 -3 9 11 5
21 9 23 9 1 1 2 -3 2 -9z m198 6 c-2 -1 -10 -7 -19 -14 -13 -10 -18 -10 -22 0
-3 8 5 14 20 14 13 1 23 1 21 0z m-181 -24 c-10 -10 -18 -29 -18 -43 l-2 -24
-4 23 c-4 21 20 62 35 62 3 0 -2 -8 -11 -18z m131 -13 c-3 -8 -7 -3 -11 10 -4
17 -3 21 5 13 5 -5 8 -16 6 -23z m375 0 c5 -3 2 -9 -5 -12 -9 -3 -14 3 -15 15
-1 11 1 16 5 12 4 -5 11 -12 15 -15z m77 -6 c0 -6 -6 -15 -12 -19 -7 -4 -10
-4 -6 1 4 4 1 13 -8 19 -13 10 -13 12 5 12 12 0 21 -6 21 -13z m-633 -25 c-3
-7 -5 -2 -5 12 0 14 2 19 5 13 2 -7 2 -19 0 -25z m480 26 c-3 -3 -12 -4 -19
-1 -8 3 -5 6 6 6 11 1 17 -2 13 -5z m-271 -16 c4 -7 4 -10 -1 -6 -4 4 -15 2
-24 -5 -14 -11 -14 -10 -2 6 16 20 18 21 27 5z m311 6 c-3 -3 -12 -4 -19 -1
-8 3 -5 6 6 6 11 1 17 -2 13 -5z m165 -6 c-6 -6 -21 -12 -32 -13 -15 -1 -17 1
-9 12 6 7 21 13 32 13 16 0 18 -3 9 -12z m-706 -10 c4 -6 3 -8 -4 -4 -6 3 -12
-3 -15 -16 -4 -20 -4 -19 -6 5 -1 28 12 36 25 15z m484 -1 c-14 -8 -27 -12
-30 -10 -7 6 23 23 40 23 8 0 4 -6 -10 -13z m124 -2 c-4 -8 -11 -15 -16 -15
-6 0 -5 6 2 15 7 8 14 15 16 15 2 0 1 -7 -2 -15z m-483 -12 c13 -17 13 -17 -6
-3 -11 8 -22 16 -24 17 -2 2 0 3 6 3 6 0 17 -8 24 -17z m305 -27 c-5 -27 -3
-37 12 -48 18 -12 37 -92 20 -82 -4 3 -8 17 -8 32 -1 41 -41 80 -86 85 -37 3
-37 4 9 5 40 2 47 5 47 22 0 11 3 20 6 20 3 0 3 -15 0 -34z m204 30 c0 -2 -7
-9 -15 -16 -13 -11 -14 -10 -9 4 5 14 24 23 24 12z m-64 -21 c-3 -8 -1 -15 4
-15 5 0 5 -13 -1 -30 -6 -16 -15 -30 -20 -30 -5 0 -4 12 1 26 12 32 4 50 -16
33 -17 -14 -19 2 -2 19 17 17 41 15 34 -3z m-543 -7 c3 -10 7 -10 19 0 13 10
18 10 24 1 4 -7 3 -9 -3 -6 -6 4 -17 -1 -24 -10 -12 -14 -11 -15 11 -9 14 4 1
-7 -29 -23 -30 -17 -55 -31 -57 -31 -9 0 10 58 23 72 19 21 30 23 36 6z m439
-40 c-6 -6 -7 0 -4 19 5 21 7 23 10 9 2 -10 0 -22 -6 -28z m209 -21 c-8 -8
-11 -7 -11 4 0 9 3 19 7 23 4 4 9 2 11 -4 3 -7 -1 -17 -7 -23z m-434 4 c0 -11
-6 -17 -14 -14 -7 3 -13 0 -13 -6 0 -6 -12 -11 -27 -11 -21 0 -24 3 -13 9 8 6
17 8 21 6 3 -3 15 4 25 15 24 24 23 24 21 1z m386 2 c-7 -3 -13 -9 -13 -14 0
-6 5 -7 12 -3 7 4 8 3 4 -4 -10 -16 -26 -15 -26 1 0 16 22 39 29 30 3 -3 0 -8
-6 -10z m-96 -15 c-3 -8 -6 -5 -6 6 -1 11 2 17 5 13 3 -3 4 -12 1 -19z m-443
-2 c-3 -8 -11 -13 -17 -10 -7 2 -13 -6 -13 -21 -1 -15 -10 -35 -20 -46 -22
-24 -25 -56 -7 -63 18 -7 40 2 47 20 3 8 11 14 18 14 10 0 10 -2 0 -9 -7 -4
-12 -14 -10 -22 2 -8 -5 -14 -14 -14 -9 0 -20 -4 -24 -8 -4 -4 -3 -7 3 -7 6 0
8 -11 6 -24 -4 -18 -10 -22 -24 -19 -18 5 -18 7 -4 23 33 36 -38 48 -89 15
-14 -9 -30 -14 -35 -10 -7 3 -8 0 -5 -9 7 -18 20 -21 28 -7 3 5 15 11 27 14
12 3 18 3 13 -1 -5 -4 -22 -18 -38 -32 -16 -14 -26 -20 -23 -13 4 6 -7 23 -24
37 l-30 26 21 30 c28 40 94 92 155 123 58 30 66 32 59 13z m275 -13 c21 -39
-23 -68 -61 -39 -16 11 -16 15 -2 34 18 26 49 29 63 5z m29 -24 c-3 -8 -7 -3
-11 10 -4 17 -3 21 5 13 5 -5 8 -16 6 -23z m117 14 c-2 -10 -4 -19 -4 -21 -1
-2 -6 0 -11 3 -8 5 -7 11 1 21 15 18 18 18 14 -3z m-385 -7 c0 -2 -8 -10 -17
-17 -16 -13 -17 -12 -4 4 13 16 21 21 21 13z m107 -11 c0 -8 -4 -12 -9 -9 -5
3 -6 10 -3 15 9 13 12 11 12 -6z m317 4 c-3 -6 0 -16 7 -21 10 -7 8 -8 -8 -3
-31 9 -39 -13 -9 -25 14 -5 26 -12 26 -15 0 -5 -70 22 -79 30 -2 3 2 5 11 5 8
0 23 9 33 20 20 22 30 27 19 9z m-343 -16 c13 -16 12 -17 -3 -4 -17 13 -22 21
-14 21 2 0 10 -8 17 -17z m464 -4 c-4 -5 -12 -9 -18 -8 -9 0 -8 2 1 6 6 2 9
10 6 15 -4 7 -2 8 5 4 6 -4 9 -12 6 -17z m-484 -6 c13 -17 13 -17 -6 -3 -11 8
-22 16 -24 17 -2 2 0 3 6 3 6 0 17 -8 24 -17z m-61 -8 c-7 -9 -15 -13 -19 -10
-3 3 1 10 9 15 21 14 24 12 10 -5z m136 -11 c1 -9 0 -13 -4 -10 -3 4 -7 14 -8
22 -1 9 0 13 4 10 3 -4 7 -14 8 -22z m39 8 c-3 -3 -11 0 -18 7 -9 10 -8 11 6
5 10 -3 15 -9 12 -12z m76 5 c-8 -10 -7 -17 1 -25 8 -8 4 -10 -16 -6 -20 3
-25 1 -20 -7 5 -8 3 -9 -6 -4 -9 5 -4 14 16 31 33 26 42 30 25 11z m-131 -32
c0 -2 -7 -2 -15 1 -25 10 -17 -5 13 -20 15 -8 22 -15 16 -16 -5 0 -19 7 -30
15 -24 18 -40 19 -25 2 8 -10 7 -14 -2 -14 -7 0 -13 10 -13 23 0 15 4 20 15
16 10 -4 12 -1 6 7 -6 10 -3 11 14 2 11 -7 21 -14 21 -16z m-96 3 c-5 -7 -2
-9 8 -6 8 4 15 1 15 -7 0 -8 -7 -11 -15 -7 -11 4 -13 1 -7 -8 5 -8 4 -11 -3
-7 -5 4 -9 15 -7 25 5 23 4 22 11 22 3 0 2 -5 -2 -12z m276 -10 c0 -6 -6 -5
-15 2 -8 7 -15 14 -15 16 0 2 7 1 15 -2 8 -4 15 -11 15 -16z m30 -7 c0 -5 -8
-15 -17 -22 -16 -12 -17 -12 -6 2 7 9 10 19 6 22 -3 4 -1 7 5 7 7 0 12 -4 12
-9z m-305 -71 c3 0 3 5 -1 11 -5 8 -1 8 14 0 26 -14 35 -14 27 -1 -3 6 -4 10
-1 10 16 0 13 -21 -5 -30 -15 -8 -19 -9 -15 -1 8 13 -4 14 -22 2 -11 -7 -10
-9 3 -15 23 -9 7 -28 -17 -20 -14 4 -18 2 -14 -5 4 -7 1 -9 -8 -5 -14 6 -17
-18 -3 -32 10 -10 -13 -45 -25 -38 -7 4 -6 9 2 14 8 5 7 9 -5 13 -11 5 -14 3
-8 -6 4 -7 -3 -5 -17 4 -14 9 -25 22 -25 29 0 8 -6 15 -14 18 -9 3 -11 0 -6
-8 6 -9 4 -11 -4 -5 -9 5 -10 10 -2 18 7 7 16 5 30 -7 19 -18 47 -14 36 5 -3
5 1 6 9 3 15 -6 17 11 3 33 -4 6 -3 15 3 18 6 4 9 1 8 -6 -2 -6 2 -13 9 -16 8
-3 11 3 8 16 -3 18 -1 20 15 11 10 -5 21 -10 25 -10z m236 -33 c-10 -9 -11 -8
-5 6 3 10 9 15 12 12 3 -3 0 -11 -7 -18z m-401 -1 c0 -2 -7 -7 -16 -10 -8 -3
-12 -2 -9 4 6 10 25 14 25 6z m202 -13 c-6 -2 -9 -10 -6 -15 4 -7 2 -8 -5 -4
-13 9 -5 26 12 25 9 0 8 -2 -1 -6z m328 -18 c0 -11 -29 -11 -33 -1 -4 10 1 12
14 9 10 -3 19 -7 19 -8z m-353 -39 c0 -8 -6 -12 -12 -10 -6 3 -12 11 -12 18 0
8 6 12 12 10 6 -3 12 -11 12 -18z m-110 -13 c7 8 33 -11 33 -23 0 -12 -25 -6
-44 9 -9 7 -16 10 -16 7 0 -4 -5 -4 -10 -1 -6 4 -8 11 -4 16 4 6 11 6 20 -2 8
-6 17 -9 21 -6z m163 13 c0 -2 -8 -10 -17 -17 -16 -13 -17 -12 -4 4 13 16 21
21 21 13z m-67 -58 l-4 -33 16 28 c17 30 32 38 16 9 -7 -13 -7 -22 0 -29 8 -8
7 -13 -2 -18 -8 -6 -10 -4 -4 5 5 9 4 11 -4 6 -6 -4 -9 -12 -6 -17 4 -5 -1 -9
-10 -9 -14 0 -15 -2 -2 -15 20 -20 73 -33 62 -15 -5 9 -4 11 4 6 15 -9 5 -26
-16 -26 -12 0 -14 -7 -9 -30 3 -17 1 -30 -4 -30 -6 0 -10 -12 -10 -26 0 -14
-4 -23 -10 -19 -6 4 -8 11 -5 16 4 5 2 9 -3 9 -6 0 -12 10 -16 23 -3 13 -17
36 -30 50 -25 27 -43 37 -31 17 3 -5 1 -10 -4 -10 -6 0 -11 12 -11 26 0 23 1
24 16 10 8 -9 20 -14 25 -11 5 4 6 0 3 -8 -3 -9 3 -16 18 -20 21 -5 21 -5 6 7
-10 7 -15 16 -11 19 3 4 -3 10 -13 14 -22 8 -34 22 -34 43 0 13 2 13 11 0 9
-13 10 -12 5 3 -3 10 1 32 9 48 13 24 19 28 34 20 13 -7 17 -19 14 -43z m-138
22 c10 -11 16 -20 13 -20 -3 0 -13 9 -23 20 -10 11 -16 20 -13 20 3 0 13 -9
23 -20z m403 -15 c-3 -3 -9 2 -12 12 -6 14 -5 15 5 6 7 -7 10 -15 7 -18z
m-347 -22 c-8 -15 -10 -15 -11 -2 0 17 10 32 18 25 2 -3 -1 -13 -7 -23z m293
5 c18 -26 5 -58 -24 -58 -27 0 -44 34 -30 60 14 26 35 25 54 -2z m-305 -47 c0
-14 -1 -14 -6 -1 -3 8 -10 24 -15 35 -9 20 -9 20 6 1 9 -11 16 -27 15 -35z
m138 -6 c0 -8 -6 -15 -14 -15 -17 0 -17 17 0 23 6 3 12 6 13 6 0 1 1 -6 1 -14z
m213 -66 c0 -11 -4 -18 -10 -14 -5 3 -7 12 -3 20 7 21 13 19 13 -6z m-312 -14
c-3 -3 -9 2 -12 12 -6 14 -5 15 5 6 7 -7 10 -15 7 -18z m145 -20 c-3 -9 -8
-14 -10 -11 -3 3 -2 9 2 15 9 16 15 13 8 -4z m-108 -55 c-3 -5 9 -20 27 -35
19 -15 24 -22 11 -16 -12 6 -25 16 -28 21 -4 6 -11 8 -17 4 -5 -3 -8 2 -7 12
2 11 -1 26 -6 34 -8 13 -7 13 8 1 9 -7 15 -17 12 -21z m45 -22 c0 -6 -6 -5
-15 2 -8 7 -15 14 -15 16 0 2 7 1 15 -2 8 -4 15 -11 15 -16z m30 2 c-6 -11
-13 -20 -16 -20 -2 0 0 9 6 20 6 11 13 20 16 20 2 0 0 -9 -6 -20z m-73 -42
c-3 -8 -6 -5 -6 6 -1 11 2 17 5 13 3 -3 4 -12 1 -19z m123 -28 c22 -11 40 -23
40 -25 0 -3 -18 4 -41 15 -52 27 -63 18 -12 -10 21 -11 28 -18 14 -14 -17 4
-21 3 -16 -6 4 -7 -6 -5 -24 5 -27 13 -30 19 -21 35 13 24 12 24 60 0z m157 4
c-3 -3 -12 -4 -19 -1 -8 3 -5 6 6 6 11 1 17 -2 13 -5z m-270 -26 c-3 -8 -6 -5
-6 6 -1 11 2 17 5 13 3 -3 4 -12 1 -19z m159 -81 c1 -10 -3 -14 -13 -10 -12 5
-12 7 -1 14 7 5 10 9 6 9 -3 0 -14 3 -24 7 -12 4 -15 3 -10 -5 11 -19 -5 -14
-21 6 -13 15 -13 15 -3 -5 8 -18 8 -23 -2 -23 -8 0 -9 -3 -3 -8 12 -8 18 -32
8 -32 -14 0 -43 34 -42 49 0 12 3 11 9 -4 8 -19 9 -19 9 3 1 12 -5 22 -11 23
-10 0 -10 2 0 6 10 4 10 8 1 19 -7 9 9 5 41 -9 30 -13 54 -31 56 -40z m-3 -24
c15 -5 11 -10 -20 -24 -21 -11 -28 -17 -15 -15 12 2 20 0 16 -5 -3 -5 -13 -9
-22 -9 -15 0 -15 -2 -2 -11 12 -8 10 -9 -9 -4 -15 5 -21 3 -17 -3 10 -17 -10
-23 -23 -8 -8 10 -9 16 -1 21 5 3 10 11 10 16 0 6 -4 8 -8 5 -5 -3 -9 1 -9 9
0 10 5 11 18 4 22 -12 57 0 37 12 -10 7 -10 9 2 9 13 0 13 2 0 11 -12 9 -11 9
5 4 11 -4 28 -10 38 -12z m-83 -108 c5 3 7 -4 5 -15 -2 -11 3 -24 13 -30 15
-8 13 -10 -13 -10 -3 0 -5 3 -4 6 0 4 -5 11 -13 15 -10 7 -10 9 2 9 11 0 11 3
2 12 -7 7 -12 17 -11 23 0 5 3 4 6 -3 2 -6 9 -10 13 -7z m-36 -71 c3 -8 2 -12
-4 -9 -6 3 -10 10 -10 16 0 14 7 11 14 -7z m60 -5 c-4 -8 1 -9 17 -4 19 5 21
4 9 -4 -12 -9 -13 -11 -1 -11 8 0 12 -3 9 -6 -10 -9 -49 16 -43 27 4 5 8 9 11
9 3 0 2 -5 -2 -11z m-64 -193 c0 -102 3 -166 9 -166 5 0 10 19 10 43 0 70 8
167 14 173 3 3 2 17 -3 30 -7 17 -6 22 4 18 18 -7 15 38 -4 62 -14 18 -14 18
6 2 22 -19 39 -24 29 -8 -3 5 7 5 25 -1 38 -14 39 -21 3 -13 -22 4 -25 3 -13
-5 13 -10 13 -11 0 -11 -13 0 -13 -1 0 -11 12 -8 11 -9 -6 -5 -14 5 -21 2 -21
-9 0 -10 7 -14 21 -10 12 3 15 2 7 -1 -11 -5 -11 -8 0 -16 10 -6 6 -7 -11 -3
-19 5 -22 4 -10 -4 13 -10 13 -11 0 -11 -13 0 -13 -1 0 -10 13 -9 13 -10 0
-10 -8 -1 1 -9 20 -20 19 -11 31 -19 25 -20 -5 0 -3 -5 5 -11 12 -8 10 -9 -7
-4 -27 7 -26 -18 3 -40 19 -15 19 -15 0 -8 -15 5 -18 3 -13 -10 4 -10 1 -17
-6 -17 -7 -1 -5 -6 5 -14 13 -10 15 -15 6 -24 -9 -9 -9 -12 2 -12 7 0 10 -3 7
-7 -4 -3 -2 -12 4 -20 7 -8 8 -13 1 -13 -17 0 -8 -34 13 -47 11 -7 14 -12 7
-13 -22 0 -86 30 -109 52 -24 22 -33 12 -10 -11 10 -11 10 -13 0 -7 -9 5 -13
-1 -13 -18 0 -14 4 -26 10 -26 5 0 7 6 4 14 -9 24 11 26 52 6 21 -11 44 -20
51 -20 7 0 13 -7 13 -15 0 -8 -5 -15 -11 -15 -5 0 -7 5 -3 12 4 7 3 8 -4 4 -8
-5 -9 -13 -3 -24 11 -21 -18 -123 -37 -130 -7 -2 -10 2 -6 11 6 17 -27 29 -47
17 -9 -6 -3 -13 22 -25 23 -11 34 -24 35 -40 2 -27 -16 -25 -56 9 l-25 21 24
-27 c23 -26 18 -41 -5 -18 -7 7 -11 6 -11 -4 0 -8 5 -12 10 -9 6 3 7 1 3 -5
-4 -8 -2 -10 7 -6 8 3 18 0 23 -7 5 -9 2 -10 -9 -6 -9 3 -19 1 -23 -5 -4 -6
-3 -8 2 -5 6 3 16 2 23 -2 10 -7 11 -13 2 -27 -11 -18 -11 -18 -9 1 2 12 -3
20 -12 20 -8 0 -16 6 -16 13 -1 6 -3 13 -4 15 -7 7 -7 107 0 107 4 0 6 9 3 20
-3 11 0 20 6 20 5 0 8 -7 5 -15 -7 -17 -3 -18 20 -9 15 6 15 8 0 19 -10 7 -18
20 -20 28 -2 14 1 15 19 6 22 -12 22 -12 0 13 -13 13 -23 30 -23 37 0 7 -4 10
-9 7 -4 -3 -9 97 -10 222 -1 124 1 223 4 220 4 -4 6 -81 5 -172z m30 124 c0
-5 -2 -10 -4 -10 -3 0 -8 5 -11 10 -3 6 -1 10 4 10 6 0 11 -4 11 -10z m75 -80
l20 -9 -20 0 c-17 -1 -17 -3 -5 -11 8 -5 11 -10 5 -10 -5 0 -17 5 -25 10 -13
9 -13 10 0 10 13 0 13 1 0 10 -18 12 -2 12 25 0z m122 -106 c-3 -3 -12 -4 -19
-1 -8 3 -5 6 6 6 11 1 17 -2 13 -5z m6 -21 c-7 -2 -19 -2 -25 0 -7 3 -2 5 12
5 14 0 19 -2 13 -5z m-76 -95 c-3 -8 -6 -5 -6 6 -1 11 2 17 5 13 3 -3 4 -12 1
-19z m1 -102 c-7 -8 -15 -12 -17 -11 -5 6 10 25 20 25 5 0 4 -6 -3 -14z m-103
-134 c-3 -3 -11 0 -18 7 -9 10 -8 11 6 5 10 -3 15 -9 12 -12z"/>
<path d="M610 2220 c-5 -9 -5 -22 1 -31 7 -11 9 -10 10 6 1 11 1 24 0 28 -1 5
8 2 20 -7 16 -11 27 -12 41 -5 10 5 16 14 13 20 -10 15 -76 7 -85 -11z"/>
<path d="M556 2095 c-3 -9 -6 -22 -5 -28 0 -7 5 -1 10 12 5 13 8 26 5 28 -2 2
-6 -3 -10 -12z"/>
<path d="M609 1998 c7 -9 17 -32 21 -50 7 -31 8 -31 9 -6 1 15 -9 37 -21 50
-13 13 -17 16 -9 6z"/>
<path d="M800 1918 c-2 -5 -3 -12 -4 -17 0 -5 -4 -13 -8 -17 -5 -4 -8 -12 -8
-18 0 -6 5 -3 11 7 10 18 11 18 25 0 14 -17 15 -17 6 2 -5 11 -12 27 -15 35
-3 8 -6 12 -7 8z"/>
<path d="M615 1890 c5 -8 10 -23 10 -32 2 -21 13 -34 21 -25 4 4 1 14 -7 24
-8 10 15 -8 51 -40 37 -33 66 -53 69 -46 2 6 -5 16 -15 22 -10 6 -36 26 -58
46 -23 20 -50 43 -60 51 -18 13 -19 13 -11 0z"/>
<path d="M849 1895 c0 -6 -2 -18 -4 -27 -5 -27 12 -31 28 -7 11 15 16 17 20 7
3 -8 6 -6 6 6 1 11 -4 16 -13 13 -7 -3 -19 0 -25 6 -6 6 -11 7 -12 2z m16 -24
c3 -5 2 -12 -3 -15 -5 -3 -9 1 -9 9 0 17 3 19 12 6z"/>
<path d="M757 1833 c3 -7 6 -13 8 -13 2 0 5 6 8 13 3 8 -1 14 -8 14 -7 0 -11
-6 -8 -14z"/>
<path d="M1000 1856 c-13 -35 -11 -38 18 -22 20 11 21 14 8 31 -14 19 -15 19
-26 -9z"/>
<path d="M1018 1774 c-32 -17 -33 -22 -14 -47 13 -17 15 -15 35 16 32 52 27
58 -21 31z"/>
<path d="M984 1714 c6 -13 18 -24 26 -23 10 0 11 2 3 6 -7 2 -13 11 -13 18 0
7 -6 15 -14 18 -11 4 -11 1 -2 -19z"/>
<path d="M955 1689 c-4 -6 -5 -12 -2 -15 2 -3 7 2 10 11 7 17 1 20 -8 4z"/>
<path d="M884 1649 c-9 -16 2 -22 21 -11 15 8 16 10 1 15 -8 3 -18 2 -22 -4z"/>
<path d="M1112 1592 c-8 -6 -2 -9 18 -9 20 0 26 3 18 9 -7 4 -15 8 -18 8 -3 0
-11 -4 -18 -8z"/>
<path d="M1075 1549 c-4 -6 -14 -8 -22 -5 -8 3 -11 1 -8 -5 4 -5 12 -8 18 -6
7 2 21 0 32 -5 19 -9 19 -8 2 5 -14 11 -15 16 -5 20 9 4 9 6 1 6 -6 1 -15 -4
-18 -10z"/>
<path d="M1210 1130 c8 -5 20 -10 25 -10 6 0 3 5 -5 10 -8 5 -19 10 -25 10 -5
0 -3 -5 5 -10z"/>
<path d="M1221 966 c-9 -11 -9 -16 0 -22 7 -4 9 -3 5 4 -3 6 2 15 11 21 10 6
13 11 7 11 -6 0 -17 -6 -23 -14z"/>
<path d="M1237 389 c7 -7 15 -10 18 -7 3 3 -2 9 -12 12 -14 6 -15 5 -6 -5z"/>
<path d="M1260 363 c0 -6 8 -17 18 -24 16 -13 16 -13 2 6 -8 11 -16 22 -17 24
-2 2 -3 0 -3 -6z"/>
<path d="M1770 2456 c0 -3 14 -12 30 -21 17 -9 30 -13 30 -11 0 3 -13 12 -30
21 -16 9 -30 13 -30 11z"/>
<path d="M1956 2238 c-23 -32 -20 -72 6 -94 17 -14 20 -15 9 -2 -13 18 -7 43
9 33 17 -11 20 15 5 39 -9 14 -14 30 -10 36 12 20 -4 10 -19 -12z m34 -48 c0
-5 -2 -10 -4 -10 -3 0 -8 5 -11 10 -3 6 -1 10 4 10 6 0 11 -4 11 -10z"/>
<path d="M1750 1971 c0 -6 4 -13 10 -16 6 -3 7 1 4 9 -7 18 -14 21 -14 7z"/>
<path d="M2094 1958 l-19 -23 23 19 c21 18 27 26 19 26 -2 0 -12 -10 -23 -22z"/>
<path d="M1765 1869 c-4 -6 -5 -12 -2 -15 2 -3 7 2 10 11 7 17 1 20 -8 4z"/>
<path d="M1784 1859 c-4 -8 -3 -9 4 -5 7 4 12 2 12 -3 0 -6 -11 -11 -25 -11
-33 0 -32 -14 5 -40 29 -21 32 -21 55 -6 32 21 32 36 1 36 -16 0 -23 5 -22 16
1 21 -19 30 -30 13z m21 -39 c-4 -7 3 -9 22 -5 27 5 27 5 5 -7 -19 -9 -26 -9
-40 5 -15 16 -15 17 1 17 10 0 15 -5 12 -10z"/>
<path d="M1853 1783 c-13 -8 -23 -21 -23 -27 0 -7 3 -8 8 0 4 5 18 18 32 27
13 9 20 17 15 16 -6 0 -20 -7 -32 -16z"/>
<path d="M1893 1773 c4 -3 1 -13 -6 -22 -11 -14 -10 -14 6 -2 20 15 22 31 5
31 -6 0 -8 -3 -5 -7z"/>
<path d="M1856 1735 c4 -8 10 -15 15 -15 4 0 6 7 3 15 -4 8 -10 15 -15 15 -4
0 -6 -7 -3 -15z"/>
<path d="M1785 1731 c-3 -5 -1 -13 5 -16 8 -5 8 -11 1 -19 -8 -10 -5 -18 9
-31 16 -14 20 -15 20 -4 0 8 -5 20 -11 26 -8 8 -8 13 0 17 6 4 12 5 12 2 1 -3
2 -9 3 -13 1 -5 7 -18 14 -30 9 -17 10 -29 2 -45 -11 -22 -10 -22 4 -4 23 28
20 48 -11 89 -29 38 -38 43 -48 28z"/>
<path d="M1711 1670 c-9 -5 -5 -9 10 -13 28 -7 31 -6 14 10 -6 6 -18 8 -24 3z"/>
<path d="M1760 1660 c0 -5 6 -10 14 -10 9 0 12 -7 9 -20 -3 -11 -9 -20 -14
-20 -5 0 -6 8 -2 18 3 9 3 14 -1 10 -5 -4 -10 -31 -12 -59 -4 -52 6 -58 21
-11 4 13 2 22 -5 22 -6 0 0 11 14 24 25 22 25 24 8 40 -21 18 -32 21 -32 6z"/>
<path d="M1535 1650 c27 -12 43 -12 25 0 -8 5 -22 9 -30 9 -10 0 -8 -3 5 -9z"/>
<path d="M1720 1627 c-9 -7 -15 -18 -14 -24 1 -7 2 -17 3 -23 0 -5 5 -10 10
-10 5 0 7 9 4 20 -3 11 0 27 7 35 15 18 11 19 -10 2z"/>
<path d="M1535 1600 c-13 -6 -15 -9 -5 -9 8 0 22 4 30 9 18 12 2 12 -25 0z"/>
<path d="M1723 1545 c0 -8 4 -15 9 -15 4 0 8 4 8 9 0 6 -4 12 -8 15 -5 3 -9
-1 -9 -9z"/>
<path d="M1505 1527 c-40 -15 -48 -29 -28 -44 13 -10 14 -13 2 -13 -8 -1 -3
-7 11 -15 21 -12 22 -14 6 -15 -11 0 -17 -2 -14 -5 3 -4 18 -3 33 1 20 5 24 9
13 16 -9 7 -3 8 17 4 22 -5 26 -4 15 4 -10 6 -11 10 -2 10 6 0 12 6 12 14 0
19 25 27 41 13 11 -10 11 -9 1 4 -8 10 -26 15 -59 14 -48 -2 -48 -2 -18 11 37
16 12 16 -30 1z m51 -34 c-3 -17 -29 -32 -56 -31 -8 0 -1 6 15 13 17 8 23 14
15 15 -13 0 -13 1 0 10 22 14 29 12 26 -7z m-46 -3 c0 -5 -4 -10 -10 -10 -5 0
-10 5 -10 10 0 6 5 10 10 10 6 0 10 -4 10 -10z"/>
<path d="M1624 1452 c4 -7 10 -25 12 -39 7 -36 11 -39 16 -11 3 14 -3 31 -15
43 -11 11 -17 14 -13 7z"/>
<path d="M1528 1363 c7 -3 16 -2 19 1 4 3 -2 6 -13 5 -11 0 -14 -3 -6 -6z"/>
<path d="M1618 1363 c7 -3 16 -2 19 1 4 3 -2 6 -13 5 -11 0 -14 -3 -6 -6z"/>
<path d="M1528 1343 c7 -3 16 -2 19 1 4 3 -2 6 -13 5 -11 0 -14 -3 -6 -6z"/>
<path d="M1435 1270 c-3 -5 0 -10 7 -11 7 0 4 -4 -7 -9 -14 -7 -8 -8 20 -3 48
7 57 13 24 14 l-24 1 25 8 c24 8 24 8 -7 9 -17 1 -35 -3 -38 -9z"/>
<path d="M1570 1235 c0 -5 5 -17 10 -25 5 -8 10 -10 10 -5 0 6 -5 17 -10 25
-5 8 -10 11 -10 5z"/>
<path d="M1546 1155 c-9 -26 -7 -32 5 -12 6 10 9 21 6 23 -2 3 -7 -2 -11 -11z"/>
<path d="M1468 1153 c7 -3 16 -2 19 1 4 3 -2 6 -13 5 -11 0 -14 -3 -6 -6z"/>
<path d="M1516 1073 c-6 -14 -5 -15 5 -6 7 7 10 15 7 18 -3 3 -9 -2 -12 -12z"/>
<path d="M1486 497 c3 -10 9 -15 12 -12 3 3 0 11 -7 18 -10 9 -11 8 -5 -6z"/>
<path d="M1373 487 c-3 -5 0 -14 6 -20 9 -9 10 -7 5 7 -4 11 -3 17 2 14 5 -3
18 -2 29 3 17 6 15 7 -8 6 -16 -1 -31 -5 -34 -10z"/>
<path d="M1462 100 c-7 -11 -8 -20 -3 -20 9 0 24 30 18 36 -1 2 -8 -6 -15 -16z"/>
<path d="M1303 93 c9 -2 25 -2 35 0 9 3 1 5 -18 5 -19 0 -27 -2 -17 -5z"/>
<path d="M1368 93 c7 -3 16 -2 19 1 4 3 -2 6 -13 5 -11 0 -14 -3 -6 -6z"/>
<path d="M1251 81 c-11 -7 -9 -10 8 -16 11 -3 25 -4 30 0 5 3 12 1 16 -5 3 -5
18 -10 33 -10 20 0 23 3 13 9 -11 7 -10 10 5 15 10 3 -8 3 -41 1 -41 -3 -55
-2 -45 5 8 5 11 10 5 10 -5 0 -16 -4 -24 -9z"/>
</g>
</svg>
